<mxfile host="app.diagrams.net" modified="2021-05-15T14:09:07.378Z" agent="5.0 (Windows NT 10.0; Win64; x64) AppleWebKit/537.36 (KHTML, like Gecko) Chrome/90.0.4430.212 Safari/537.36" etag="Qjklmn6s26TJel27S-D_" version="14.6.13" type="github">
  <diagram name="Page-1" id="9f46799a-70d6-7492-0946-bef42562c5a5">
    <mxGraphModel dx="1422" dy="762" grid="1" gridSize="10" guides="1" tooltips="1" connect="1" arrows="1" fold="1" page="1" pageScale="1" pageWidth="1100" pageHeight="850" background="#ffffff" math="0" shadow="0">
      <root>
        <mxCell id="0" />
        <mxCell id="1" parent="0" />
        <mxCell id="Ikg8jb_DaZGRDgJEE0CS-3" value="&lt;p style=&quot;text-align: justify&quot;&gt;&lt;span&gt;&lt;font style=&quot;font-size: 12px ; line-height: 200%&quot;&gt;C isn&#39;t an object oriented programing language, even though it is possible to adopt a similar aproach to make a program, using structs.&lt;/font&gt;&lt;/span&gt;&lt;/p&gt;" style="rounded=0;whiteSpace=wrap;html=1;strokeWidth=1;align=left;strokeColor=#FFFFFF;" vertex="1" parent="1">
          <mxGeometry x="20" y="20" width="160" height="140" as="geometry" />
        </mxCell>
        <mxCell id="Ikg8jb_DaZGRDgJEE0CS-4" value="t_map" style="swimlane;fontStyle=0;childLayout=stackLayout;horizontal=1;startSize=40;horizontalStack=0;resizeParent=1;resizeParentMax=0;resizeLast=0;collapsible=1;marginBottom=0;strokeColor=#FFFFFF;strokeWidth=1;" vertex="1" parent="1">
          <mxGeometry x="640" y="320" width="140" height="176" as="geometry" />
        </mxCell>
        <mxCell id="Ikg8jb_DaZGRDgJEE0CS-5" value="t_tile *tileset" style="text;strokeColor=none;fillColor=none;align=left;verticalAlign=top;spacingLeft=4;spacingRight=4;overflow=hidden;rotatable=0;points=[[0,0.5],[1,0.5]];portConstraint=eastwest;" vertex="1" parent="Ikg8jb_DaZGRDgJEE0CS-4">
          <mxGeometry y="40" width="140" height="26" as="geometry" />
        </mxCell>
        <mxCell id="Ikg8jb_DaZGRDgJEE0CS-6" value="t_spriteset" style="text;strokeColor=none;fillColor=none;align=left;verticalAlign=top;spacingLeft=4;spacingRight=4;overflow=hidden;rotatable=0;points=[[0,0.5],[1,0.5]];portConstraint=eastwest;" vertex="1" parent="Ikg8jb_DaZGRDgJEE0CS-4">
          <mxGeometry y="66" width="140" height="26" as="geometry" />
        </mxCell>
        <mxCell id="Ikg8jb_DaZGRDgJEE0CS-7" value="char **layout" style="text;strokeColor=none;fillColor=none;align=left;verticalAlign=top;spacingLeft=4;spacingRight=4;overflow=hidden;rotatable=0;points=[[0,0.5],[1,0.5]];portConstraint=eastwest;" vertex="1" parent="Ikg8jb_DaZGRDgJEE0CS-4">
          <mxGeometry y="92" width="140" height="28" as="geometry" />
        </mxCell>
        <mxCell id="Ikg8jb_DaZGRDgJEE0CS-8" value="size_t map_x" style="text;strokeColor=none;fillColor=none;align=left;verticalAlign=top;spacingLeft=4;spacingRight=4;overflow=hidden;rotatable=0;points=[[0,0.5],[1,0.5]];portConstraint=eastwest;" vertex="1" parent="Ikg8jb_DaZGRDgJEE0CS-4">
          <mxGeometry y="120" width="140" height="28" as="geometry" />
        </mxCell>
        <mxCell id="Ikg8jb_DaZGRDgJEE0CS-22" value="size_t map_y" style="text;strokeColor=none;fillColor=none;align=left;verticalAlign=top;spacingLeft=4;spacingRight=4;overflow=hidden;rotatable=0;points=[[0,0.5],[1,0.5]];portConstraint=eastwest;" vertex="1" parent="Ikg8jb_DaZGRDgJEE0CS-4">
          <mxGeometry y="148" width="140" height="28" as="geometry" />
        </mxCell>
        <mxCell id="Ikg8jb_DaZGRDgJEE0CS-24" style="edgeStyle=orthogonalEdgeStyle;rounded=0;orthogonalLoop=1;jettySize=auto;html=1;entryX=0;entryY=0.5;entryDx=0;entryDy=0;" edge="1" parent="1" source="Ikg8jb_DaZGRDgJEE0CS-10" target="Ikg8jb_DaZGRDgJEE0CS-5">
          <mxGeometry relative="1" as="geometry" />
        </mxCell>
        <mxCell id="Ikg8jb_DaZGRDgJEE0CS-10" value="t_tile" style="swimlane;fontStyle=0;childLayout=stackLayout;horizontal=1;startSize=26;horizontalStack=0;resizeParent=1;resizeParentMax=0;resizeLast=0;collapsible=1;marginBottom=0;strokeColor=#FFFFFF;strokeWidth=1;" vertex="1" parent="1">
          <mxGeometry x="320" y="430" width="140" height="156" as="geometry" />
        </mxCell>
        <mxCell id="Ikg8jb_DaZGRDgJEE0CS-11" value="int id" style="text;strokeColor=none;fillColor=none;align=left;verticalAlign=top;spacingLeft=4;spacingRight=4;overflow=hidden;rotatable=0;points=[[0,0.5],[1,0.5]];portConstraint=eastwest;" vertex="1" parent="Ikg8jb_DaZGRDgJEE0CS-10">
          <mxGeometry y="26" width="140" height="26" as="geometry" />
        </mxCell>
        <mxCell id="Ikg8jb_DaZGRDgJEE0CS-12" value="char *wall_no" style="text;strokeColor=none;fillColor=none;align=left;verticalAlign=top;spacingLeft=4;spacingRight=4;overflow=hidden;rotatable=0;points=[[0,0.5],[1,0.5]];portConstraint=eastwest;" vertex="1" parent="Ikg8jb_DaZGRDgJEE0CS-10">
          <mxGeometry y="52" width="140" height="26" as="geometry" />
        </mxCell>
        <mxCell id="Ikg8jb_DaZGRDgJEE0CS-18" value="char *wall_so" style="text;strokeColor=none;fillColor=none;align=left;verticalAlign=top;spacingLeft=4;spacingRight=4;overflow=hidden;rotatable=0;points=[[0,0.5],[1,0.5]];portConstraint=eastwest;" vertex="1" parent="Ikg8jb_DaZGRDgJEE0CS-10">
          <mxGeometry y="78" width="140" height="26" as="geometry" />
        </mxCell>
        <mxCell id="Ikg8jb_DaZGRDgJEE0CS-19" value="char *wall_we" style="text;strokeColor=none;fillColor=none;align=left;verticalAlign=top;spacingLeft=4;spacingRight=4;overflow=hidden;rotatable=0;points=[[0,0.5],[1,0.5]];portConstraint=eastwest;" vertex="1" parent="Ikg8jb_DaZGRDgJEE0CS-10">
          <mxGeometry y="104" width="140" height="26" as="geometry" />
        </mxCell>
        <mxCell id="Ikg8jb_DaZGRDgJEE0CS-20" value="char *wall_ea" style="text;strokeColor=none;fillColor=none;align=left;verticalAlign=top;spacingLeft=4;spacingRight=4;overflow=hidden;rotatable=0;points=[[0,0.5],[1,0.5]];portConstraint=eastwest;" vertex="1" parent="Ikg8jb_DaZGRDgJEE0CS-10">
          <mxGeometry y="130" width="140" height="26" as="geometry" />
        </mxCell>
        <mxCell id="Ikg8jb_DaZGRDgJEE0CS-25" style="edgeStyle=orthogonalEdgeStyle;rounded=0;orthogonalLoop=1;jettySize=auto;html=1;exitX=0.5;exitY=0;exitDx=0;exitDy=0;entryX=0;entryY=0.5;entryDx=0;entryDy=0;" edge="1" parent="1" source="Ikg8jb_DaZGRDgJEE0CS-14" target="Ikg8jb_DaZGRDgJEE0CS-6">
          <mxGeometry relative="1" as="geometry" />
        </mxCell>
        <mxCell id="Ikg8jb_DaZGRDgJEE0CS-14" value="t_sprite" style="swimlane;fontStyle=0;childLayout=stackLayout;horizontal=1;startSize=26;horizontalStack=0;resizeParent=1;resizeParentMax=0;resizeLast=0;collapsible=1;marginBottom=0;strokeColor=#FFFFFF;strokeWidth=1;" vertex="1" parent="1">
          <mxGeometry x="420" y="630" width="140" height="78" as="geometry" />
        </mxCell>
        <mxCell id="Ikg8jb_DaZGRDgJEE0CS-15" value="int id" style="text;strokeColor=none;fillColor=none;align=left;verticalAlign=top;spacingLeft=4;spacingRight=4;overflow=hidden;rotatable=0;points=[[0,0.5],[1,0.5]];portConstraint=eastwest;" vertex="1" parent="Ikg8jb_DaZGRDgJEE0CS-14">
          <mxGeometry y="26" width="140" height="26" as="geometry" />
        </mxCell>
        <mxCell id="Ikg8jb_DaZGRDgJEE0CS-16" value="char *sprite" style="text;strokeColor=none;fillColor=none;align=left;verticalAlign=top;spacingLeft=4;spacingRight=4;overflow=hidden;rotatable=0;points=[[0,0.5],[1,0.5]];portConstraint=eastwest;" vertex="1" parent="Ikg8jb_DaZGRDgJEE0CS-14">
          <mxGeometry y="52" width="140" height="26" as="geometry" />
        </mxCell>
        <mxCell id="Ikg8jb_DaZGRDgJEE0CS-48" value="Map Parser" style="swimlane;html=1;startSize=20;horizontal=0;childLayout=flowLayout;flowOrientation=west;resizable=0;interRankCellSpacing=50;containerType=tree;strokeColor=#FFFFFF;strokeWidth=1;" vertex="1" parent="1">
          <mxGeometry x="1170" y="145" width="160" height="80" as="geometry" />
        </mxCell>
        <mxCell id="Ikg8jb_DaZGRDgJEE0CS-49" value="receive .cub file" style="whiteSpace=wrap;html=1;" vertex="1" parent="Ikg8jb_DaZGRDgJEE0CS-48">
          <mxGeometry x="40" y="20" width="100" height="40" as="geometry" />
        </mxCell>
        <mxCell id="Ikg8jb_DaZGRDgJEE0CS-69" style="edgeStyle=orthogonalEdgeStyle;rounded=0;orthogonalLoop=1;jettySize=auto;html=1;exitX=1;exitY=0.5;exitDx=0;exitDy=0;entryX=0;entryY=0.5;entryDx=0;entryDy=0;" edge="1" parent="1" source="Ikg8jb_DaZGRDgJEE0CS-52" target="Ikg8jb_DaZGRDgJEE0CS-54">
          <mxGeometry relative="1" as="geometry">
            <Array as="points">
              <mxPoint x="1510" y="271" />
              <mxPoint x="1510" y="185" />
            </Array>
          </mxGeometry>
        </mxCell>
        <mxCell id="Ikg8jb_DaZGRDgJEE0CS-52" value="generate t_sprite" style="whiteSpace=wrap;html=1;" vertex="1" parent="1">
          <mxGeometry x="1360" y="251" width="100" height="40" as="geometry" />
        </mxCell>
        <mxCell id="Ikg8jb_DaZGRDgJEE0CS-68" style="edgeStyle=orthogonalEdgeStyle;rounded=0;orthogonalLoop=1;jettySize=auto;html=1;exitX=1;exitY=0.5;exitDx=0;exitDy=0;entryX=0;entryY=0.5;entryDx=0;entryDy=0;" edge="1" parent="1" source="Ikg8jb_DaZGRDgJEE0CS-50" target="Ikg8jb_DaZGRDgJEE0CS-54">
          <mxGeometry relative="1" as="geometry">
            <Array as="points">
              <mxPoint x="1510" y="90" />
              <mxPoint x="1510" y="185" />
            </Array>
          </mxGeometry>
        </mxCell>
        <mxCell id="Ikg8jb_DaZGRDgJEE0CS-50" value="generate t_tile" style="whiteSpace=wrap;html=1;" vertex="1" parent="1">
          <mxGeometry x="1360" y="70" width="100" height="40" as="geometry" />
        </mxCell>
        <mxCell id="Ikg8jb_DaZGRDgJEE0CS-54" value="then generate a t_map" style="whiteSpace=wrap;html=1;" vertex="1" parent="1">
          <mxGeometry x="1530" y="165" width="100" height="40" as="geometry" />
        </mxCell>
        <mxCell id="Ikg8jb_DaZGRDgJEE0CS-60" style="edgeStyle=orthogonalEdgeStyle;rounded=0;orthogonalLoop=1;jettySize=auto;html=1;exitX=1;exitY=0.5;exitDx=0;exitDy=0;entryX=0;entryY=0.5;entryDx=0;entryDy=0;" edge="1" parent="1" source="Ikg8jb_DaZGRDgJEE0CS-58" target="Ikg8jb_DaZGRDgJEE0CS-54">
          <mxGeometry relative="1" as="geometry">
            <Array as="points">
              <mxPoint x="1490" y="145" />
              <mxPoint x="1490" y="185" />
            </Array>
          </mxGeometry>
        </mxCell>
        <mxCell id="Ikg8jb_DaZGRDgJEE0CS-58" value="generate array of strings containg the layout" style="whiteSpace=wrap;html=1;" vertex="1" parent="1">
          <mxGeometry x="1360" y="125" width="100" height="40" as="geometry" />
        </mxCell>
        <mxCell id="Ikg8jb_DaZGRDgJEE0CS-59" style="edgeStyle=orthogonalEdgeStyle;rounded=0;orthogonalLoop=1;jettySize=auto;html=1;entryX=0;entryY=0.5;entryDx=0;entryDy=0;" edge="1" parent="1" source="Ikg8jb_DaZGRDgJEE0CS-49" target="Ikg8jb_DaZGRDgJEE0CS-58">
          <mxGeometry relative="1" as="geometry" />
        </mxCell>
        <mxCell id="Ikg8jb_DaZGRDgJEE0CS-62" style="edgeStyle=orthogonalEdgeStyle;rounded=0;orthogonalLoop=1;jettySize=auto;html=1;exitX=1;exitY=0;exitDx=0;exitDy=0;entryX=0;entryY=0.5;entryDx=0;entryDy=0;" edge="1" parent="1" source="Ikg8jb_DaZGRDgJEE0CS-49" target="Ikg8jb_DaZGRDgJEE0CS-50">
          <mxGeometry relative="1" as="geometry">
            <mxPoint x="1260" y="65" as="targetPoint" />
            <Array as="points">
              <mxPoint x="1310" y="90" />
            </Array>
          </mxGeometry>
        </mxCell>
        <mxCell id="Ikg8jb_DaZGRDgJEE0CS-63" style="edgeStyle=orthogonalEdgeStyle;rounded=0;orthogonalLoop=1;jettySize=auto;html=1;exitX=1;exitY=1;exitDx=0;exitDy=0;entryX=0;entryY=0.5;entryDx=0;entryDy=0;" edge="1" parent="1" source="Ikg8jb_DaZGRDgJEE0CS-49" target="Ikg8jb_DaZGRDgJEE0CS-52">
          <mxGeometry relative="1" as="geometry">
            <Array as="points">
              <mxPoint x="1310" y="271" />
            </Array>
          </mxGeometry>
        </mxCell>
        <mxCell id="Ikg8jb_DaZGRDgJEE0CS-67" style="edgeStyle=orthogonalEdgeStyle;rounded=0;orthogonalLoop=1;jettySize=auto;html=1;entryX=0;entryY=0.5;entryDx=0;entryDy=0;" edge="1" parent="1" source="Ikg8jb_DaZGRDgJEE0CS-65" target="Ikg8jb_DaZGRDgJEE0CS-54">
          <mxGeometry relative="1" as="geometry">
            <Array as="points">
              <mxPoint x="1490" y="215" />
              <mxPoint x="1490" y="185" />
            </Array>
          </mxGeometry>
        </mxCell>
        <mxCell id="Ikg8jb_DaZGRDgJEE0CS-65" value="make measures of the map" style="whiteSpace=wrap;html=1;" vertex="1" parent="1">
          <mxGeometry x="1360" y="195" width="100" height="40" as="geometry" />
        </mxCell>
        <mxCell id="Ikg8jb_DaZGRDgJEE0CS-66" style="edgeStyle=orthogonalEdgeStyle;rounded=0;orthogonalLoop=1;jettySize=auto;html=1;exitX=1;exitY=0.5;exitDx=0;exitDy=0;entryX=0;entryY=0.5;entryDx=0;entryDy=0;" edge="1" parent="1" source="Ikg8jb_DaZGRDgJEE0CS-49" target="Ikg8jb_DaZGRDgJEE0CS-65">
          <mxGeometry relative="1" as="geometry" />
        </mxCell>
      </root>
    </mxGraphModel>
  </diagram>
</mxfile>
